<svg width="18" height="19" viewBox="0 0 18 19" fill="none" xmlns="http://www.w3.org/2000/svg">
<path d="M7.98 14.0575C7.40347 14.7463 6.62889 15.241 5.76145 15.4744C4.89402 15.7077 3.97578 15.6684 3.13148 15.3617C2.28717 15.0551 1.55771 14.496 1.0422 13.7604C0.526683 13.0247 0.250093 12.1483 0.25 11.25C0.25 9.2475 1.675 7.95875 3.575 6.24C5.2325 4.74 7.2525 2.9125 9 0C10.7475 2.9125 12.7675 4.74 14.425 6.24C16.325 7.95875 17.75 9.2475 17.75 11.25C17.7499 12.1483 17.4733 13.0247 16.9578 13.7604C16.4423 14.496 15.7128 15.0551 14.8685 15.3617C14.0242 15.6684 13.106 15.7077 12.2385 15.4744C11.3711 15.241 10.5965 14.7463 10.02 14.0575C10.5772 15.3215 11.2387 16.5369 11.9975 17.6912C12.2863 18.1287 11.9725 18.75 11.45 18.75H6.55C6.02625 18.75 5.7125 18.1287 6.0025 17.6912C6.76133 16.537 7.42277 15.3215 7.98 14.0575Z" fill="#F4F4F5"/>
</svg>
