<svg width="18" height="15" viewBox="0 0 18 15" fill="none" xmlns="http://www.w3.org/2000/svg">
<path d="M5.29714 0C2.43683 0 0 2.151 0 4.94462C0 6.87181 0.897271 8.49433 2.08645 9.83837C3.27154 11.1778 4.80049 12.3021 6.18272 13.2431L8.56758 14.8666C8.82876 15.0445 9.17125 15.0445 9.43242 14.8666L11.8173 13.2431C13.1995 12.3021 14.7285 11.1778 15.9136 9.83837C17.1027 8.49433 18 6.87181 18 4.94462C18 2.151 15.5632 0 12.7029 0C11.2284 0 9.93102 0.695316 9 1.595C8.06898 0.695316 6.77157 0 5.29714 0Z" fill="white"/>
</svg>
