<svg width="15" height="15" viewBox="0 0 15 15" fill="none" xmlns="http://www.w3.org/2000/svg">
<path d="M7.49999 6.51044C7.82791 6.51044 8.09374 6.77627 8.09374 7.10419V11.0625C8.09374 11.3904 7.82791 11.6563 7.49999 11.6563C7.17207 11.6563 6.90624 11.3904 6.90624 11.0625V7.10419C6.90624 6.77627 7.17207 6.51044 7.49999 6.51044Z" fill="#F4F4F5"/>
<path d="M7.49999 5.12502C7.93721 5.12502 8.29166 4.77058 8.29166 4.33335C8.29166 3.89613 7.93721 3.54169 7.49999 3.54169C7.06277 3.54169 6.70832 3.89613 6.70832 4.33335C6.70832 4.77058 7.06277 5.12502 7.49999 5.12502Z" fill="#F4F4F5"/>
<path fill-rule="evenodd" clip-rule="evenodd" d="M0.572906 7.50002C0.572906 3.6743 3.67427 0.572937 7.49999 0.572937C11.3257 0.572937 14.4271 3.6743 14.4271 7.50002C14.4271 11.3257 11.3257 14.4271 7.49999 14.4271C3.67427 14.4271 0.572906 11.3257 0.572906 7.50002ZM7.49999 1.76044C4.33011 1.76044 1.76041 4.33014 1.76041 7.50002C1.76041 10.6699 4.33011 13.2396 7.49999 13.2396C10.6699 13.2396 13.2396 10.6699 13.2396 7.50002C13.2396 4.33014 10.6699 1.76044 7.49999 1.76044Z" fill="#F4F4F5"/>
</svg>
