<svg width="18" height="20" viewBox="0 0 18 20" fill="none" xmlns="http://www.w3.org/2000/svg">
<path d="M12.9922 16.5013C15.5466 16.5013 17.6188 14.5925 17.6188 12.2388C17.6188 9.8872 15.5463 7.97938 12.9922 7.97938C12.3347 7.97938 11.7087 8.10782 11.1403 8.33657C11.1386 8.33249 11.1366 8.32852 11.1344 8.3247C12.5828 7.60438 13.5684 6.19345 13.5684 4.57157C13.5684 2.21813 11.4959 0.312195 8.94 0.312195C6.38562 0.312195 4.31344 2.21844 4.31344 4.57157C4.31344 6.12501 5.21875 7.47938 6.56562 8.22563C6.07075 8.0638 5.55348 7.98091 5.03281 7.98001C2.4775 7.98001 0.406875 9.88813 0.406875 12.2394C0.406875 14.5944 2.4775 16.5019 5.03281 16.5019C6.395 16.5019 7.61656 15.9538 8.46344 15.0913C8.5225 15.2397 8.54969 15.3994 8.55906 15.5534C8.52 15.5906 8.49875 15.6178 8.54719 15.5969C8.55156 15.6378 8.55156 15.6825 8.55312 15.7253C8.55312 15.7669 8.55125 15.8116 8.54937 15.8544C8.54937 15.8681 8.54937 15.8797 8.54688 15.8959C8.54313 15.9388 8.5375 15.9853 8.53156 16.0325C8.53156 16.04 8.52906 16.0478 8.52906 16.0556C8.52531 16.0734 8.52375 16.0888 8.51969 16.1066C8.51353 16.1447 8.50561 16.1826 8.49594 16.22C8.49469 16.2338 8.49 16.2472 8.48656 16.2609C8.47281 16.3119 8.45938 16.3622 8.44 16.4128C8.43563 16.4266 8.43 16.44 8.42406 16.4563C8.40503 16.509 8.38291 16.5605 8.35781 16.6106C8.32521 16.6789 8.2888 16.7452 8.24875 16.8094C8.24063 16.8213 8.23094 16.8331 8.22281 16.8466C8.18667 16.9032 8.14755 16.9578 8.10563 17.0103C8.09625 17.0203 8.08844 17.0297 8.07844 17.0419C8.03375 17.0963 7.98281 17.1513 7.92844 17.2056C7.91906 17.2156 7.91062 17.2209 7.90125 17.2309C7.84086 17.2899 7.77777 17.346 7.71219 17.3991C7.70625 17.405 7.69844 17.4084 7.69281 17.4128C7.61591 17.4741 7.53579 17.5313 7.45281 17.5841C6.9025 17.9394 6.09125 18.2397 4.90875 18.4119C4.90875 18.4119 4.46156 18.835 4.45781 19.2213C4.45344 19.3994 4.54156 19.5688 4.80469 19.6878H13.2188C13.4819 19.5688 13.57 19.3994 13.5681 19.2238C13.5644 18.8353 13.1153 18.4119 13.1153 18.4119C11.4628 18.1719 10.5372 17.68 10.0322 17.1431C10.0297 17.1413 10.0297 17.1378 10.0262 17.1356C9.97011 17.0745 9.91682 17.0108 9.86656 16.9447C9.86219 16.9388 9.85844 16.9328 9.85469 16.9269C9.81205 16.8682 9.77211 16.8076 9.735 16.7453C9.72906 16.7334 9.72312 16.7259 9.71719 16.7138C9.68625 16.6594 9.66094 16.6025 9.63531 16.5463C9.62938 16.5325 9.62344 16.5184 9.61594 16.5047C9.59662 16.4553 9.57901 16.4053 9.56312 16.3547C9.55719 16.3375 9.55125 16.3175 9.54531 16.2984C9.53344 16.255 9.52406 16.2122 9.51437 16.1694C9.50937 16.1516 9.50625 16.1322 9.5025 16.1109C9.5025 16.105 9.5 16.0972 9.49813 16.0891C9.49375 16.06 9.49062 16.0288 9.48438 15.9972C9.48187 15.9681 9.47844 15.935 9.47625 15.9053C9.475 15.8841 9.4725 15.8625 9.4725 15.8409C9.46873 15.7578 9.46956 15.6746 9.475 15.5916C9.54313 15.6231 9.50219 15.5663 9.46688 15.5134C9.47875 15.3728 9.50844 15.2284 9.56031 15.0934C10.4087 15.9569 11.6303 16.5031 12.9925 16.5031" fill="#F4F4F5"/>
</svg>
